<?xml version="1.0" encoding="utf-8"?><svg xml:space="preserve" viewBox="0 0 100 100" y="0" x="0" xmlns="http://www.w3.org/2000/svg" id="Layer_1" version="1.1" width="200px" height="200px" xmlns:xlink="http://www.w3.org/1999/xlink" style="width:100%;height:100%;background-size:initial;background-repeat-y:initial;background-repeat-x:initial;background-position-y:initial;background-position-x:initial;background-origin:initial;background-image:initial;background-clip:initial;background-attachment:initial;animation-play-state:paused" ><g class="ldl-scale" style="transform-origin:50% 50%;transform:rotate(0deg) scale(0.8, 0.8);animation-play-state:paused" ><path fill="#d65a62" d="M50 91.4c-3.7 0-7.4-.5-11-1.4l3.9-14.6c2.3.6 4.7.9 7.1.9v15.1z" id="XMLID_388_" style="fill:rgb(214, 90, 98);animation-play-state:paused" ></path>
<path fill="#ea7c60" d="M61 90l-3.9-14.6c2.3-.6 4.5-1.5 6.6-2.7l7.6 13.1C68.1 87.6 64.6 89 61 90z" id="XMLID_389_" style="fill:rgb(234, 124, 96);animation-play-state:paused" ></path>
<path fill="#f0af6b" d="M28.8 85.8c-3.2-1.9-6.2-4.1-8.8-6.7l10.7-10.7c1.7 1.7 3.6 3.2 5.7 4.4l-7.6 13z" id="XMLID_392_" style="fill:rgb(240, 175, 107);animation-play-state:paused" ></path>
<path fill="#f0af6b" d="M80.1 79L69.4 68.3c1.7-1.7 3.2-3.6 4.4-5.7l13.1 7.6c-1.9 3.2-4.2 6.2-6.8 8.8z" id="XMLID_393_" style="fill:rgb(240, 175, 107);animation-play-state:paused" ></path>
<path fill="#ea7c60" d="M13.2 70.3C11.4 67 9.9 63.6 9 60l14.6-3.9c.6 2.3 1.5 4.5 2.7 6.6l-13.1 7.6z" id="XMLID_394_" style="fill:rgb(234, 124, 96);animation-play-state:paused" ></path>
<path fill="#d65a62" d="M91.1 59.9L76.5 56c.6-2.3.9-4.7.9-7.1v-.1h15.1v.1c0 3.8-.5 7.5-1.4 11z" id="XMLID_395_" style="fill:rgb(214, 90, 98);animation-play-state:paused" ></path>
<path fill="#d65a62" d="M7.5 49c0-3.8.5-7.4 1.4-11l14.6 3.9c-.6 2.3-.9 4.6-.9 7L7.5 49z" id="XMLID_396_" style="fill:rgb(214, 90, 98);animation-play-state:paused" ></path>
<path fill="#ea7c60" d="M76.4 41.7c-.6-2.3-1.6-4.5-2.8-6.6l13.1-7.6c1.9 3.2 3.3 6.7 4.3 10.2l-14.6 4z" id="XMLID_397_" style="fill:rgb(234, 124, 96);animation-play-state:paused" ></path>
<path fill="#f0af6b" d="M26.2 35.3l-13.1-7.5c1.8-3.2 4.1-6.2 6.7-8.8l10.7 10.7c-1.6 1.6-3.1 3.5-4.3 5.6z" id="XMLID_398_" style="fill:rgb(240, 175, 107);animation-play-state:paused" ></path>
<path fill="#f0af6b" d="M69.3 29.5c-1.7-1.7-3.6-3.1-5.7-4.3l7.5-13.1c3.2 1.8 6.2 4.1 8.8 6.7L69.3 29.5z" id="XMLID_399_" style="fill:rgb(240, 175, 107);animation-play-state:paused" ></path>
<path fill="#ea7c60" d="M36.3 25.2l-7.6-13.1c3.2-1.9 6.7-3.3 10.2-4.3l3.9 14.6c-2.3.7-4.5 1.6-6.5 2.8z" id="XMLID_400_" style="fill:rgb(234, 124, 96);animation-play-state:paused" ></path>
<path fill="#d65a62" d="M57 22.5c-2.3-.6-4.6-.9-7-.9h-.1V6.5h.1c3.7 0 7.3.5 10.9 1.4L57 22.5z" id="XMLID_401_" style="fill:rgb(214, 90, 98);animation-play-state:paused" ></path>
<metadata xmlns:d="https://loading.io/stock/" style="animation-play-state:paused" ><d:name style="animation-play-state:paused" >wheel</d:name>


<d:tags style="animation-play-state:paused" >curve,circle,rotate,dash,spinner,preloader,loading icon,wheel</d:tags>


<d:license style="animation-play-state:paused" >by</d:license>


<d:slug style="animation-play-state:paused" >olchaj</d:slug></metadata></g><!-- generated by https://loading.io/ --></svg>
